<svg id="Capa_1" enable-background="new 0 0 512 512" height="512" viewBox="0 0 512 512" width="512" xmlns="http://www.w3.org/2000/svg"><g><g><g><g><path d="m491.449 10h-288.556c-5.827 0-10.551 4.724-10.551 10.551v109.392c0 5.825 4.722 10.547 10.547 10.547h22.068v31.017l41.363-31.017h225.131c5.825 0 10.547-4.722 10.547-10.547v-109.392c.002-5.827-4.722-10.551-10.549-10.551z" fill="#c4ead9"/></g><g><path d="m224.957 181.507c-1.525 0-3.056-.349-4.472-1.056-3.388-1.694-5.527-5.157-5.527-8.944v-21.017h-12.069c-11.33 0-20.547-9.217-20.547-20.547v-109.392c0-11.332 9.219-20.551 20.551-20.551h288.556c11.332 0 20.551 9.219 20.551 20.551v109.393c0 11.33-9.218 20.547-20.547 20.547h-221.799l-38.697 29.018c-1.764 1.321-3.876 1.998-6 1.998zm-22.064-161.507c-.304 0-.551.247-.551.551v109.393c0 .302.246.547.547.547h22.069c5.523 0 10 4.478 10 10v11.019l25.364-19.02c1.73-1.298 3.835-1.999 5.999-1.999h225.131c.302 0 .547-.245.547-.547v-109.393c0-.304-.247-.551-.551-.551z"/></g></g><g><g><g><path d="m460.298 58.751h-226.254c-5.523 0-10-4.478-10-10s4.477-10 10-10h226.254c5.523 0 10 4.478 10 10s-4.477 10-10 10z"/></g></g><g><g><path d="m460.298 105.757h-56.031c-5.523 0-10-4.478-10-10s4.477-10 10-10h56.031c5.523 0 10 4.478 10 10s-4.477 10-10 10z"/></g></g><g><g><path d="m354.27 105.76c-4.003 0-7.706-2.488-9.24-6.18-1.628-3.917-.531-8.545 2.646-11.341 3.178-2.797 7.927-3.257 11.591-1.142 3.659 2.112 5.642 6.468 4.803 10.613-.933 4.611-5.08 8.05-9.8 8.05z"/></g></g><g><g><path d="m305.267 105.757h-71.223c-5.523 0-10-4.478-10-10s4.477-10 10-10h71.223c5.523 0 10 4.478 10 10s-4.477 10-10 10z"/></g></g></g></g><g><g><g><g><g><ellipse cx="89.215" cy="72.494" fill="#ffcbbe" rx="62.494" ry="62.494" transform="matrix(.707 -.707 .707 .707 -25.13 84.318)"/></g><g><path d="m89.215 144.987c-39.973 0-72.494-32.521-72.494-72.494.001-39.972 32.521-72.493 72.494-72.493s72.494 32.521 72.494 72.493c0 39.974-32.52 72.494-72.494 72.494zm0-124.987c-28.945 0-52.493 23.549-52.493 52.493 0 28.945 23.548 52.494 52.494 52.494s52.494-23.549 52.494-52.494c-.001-28.944-23.549-52.493-52.495-52.493z"/></g></g><g><path d="m168.431 189.8c0-11.503-9.331-20.835-20.835-20.835h-116.761c-11.504 0-20.835 9.332-20.835 20.835v142.039h158.431z" fill="#8481e2"/></g></g><g><path d="m130.102 502h-81.773l-10.315-170.161h102.402z" fill="#9bc6ff"/></g><g><g><path d="m89.215 199.4c-11.046 0-20-8.954-20-20v-10.435h40v10.435c0 11.046-8.954 20-20 20z" fill="#e5ecec"/></g></g><path d="m147.596 158.965h-116.762c-17.001 0-30.834 13.832-30.834 30.835v142.039c0 5.522 4.477 10 10 10h18.602l9.746 160.767c.32 5.277 4.693 9.395 9.981 9.395h81.772c5.288 0 9.662-4.117 9.981-9.395l9.746-160.767h18.602c5.523 0 10-4.478 10-10v-142.039c.001-17.003-13.832-30.835-30.834-30.835zm-48.381 20v.436c0 5.514-4.486 10-10 10s-10-4.486-10-10v-.436zm21.474 313.035h-62.948l-9.103-150.161h81.153zm37.742-170.161h-15.784v-89.512c0-5.522-4.477-10-10-10s-10 4.478-10 10v89.512h-66.863v-89.512c0-5.522-4.477-10-10-10s-10 4.478-10 10v89.512h-15.784v-132.039c0-5.975 4.86-10.835 10.834-10.835h28.381v.436c0 16.542 13.458 30 30 30s30-13.458 30-30v-.436h28.381c5.974 0 10.834 4.86 10.834 10.835v132.039z"/></g></g></g></svg>